PathFileType	3	(X/Y/Z)	static.trc																																																																												
DataRate	CameraRate	NumFrames	NumMarkers	Units	OrigDataRate	OrigDataStartFrame	OrigNumFrames																																																																								
100	100	14	26	mm	100	163	260																																																																								
Frame#	Time	RAcromium			LAcromium			C7			Clavicle			VSacral			RASIS			LASIS			RHip			LHip			RKneeLat			RKneeMed			LKneeMed			LKneeLat			LShankFront			RShankFront			RAnkleLat			RAnkleMed			LAnkleMed			LAnkleLat			LToeLat			LToeTip			RToeTip			RToeLat			RHeel			LHeel			T10		
		X1	Y1	Z1	X2	Y2	Z2	X3	Y3	Z3	X4	Y4	Z4	X5	Y5	Z5	X6	Y6	Z6	X7	Y7	Z7	X8	Y8	Z8	X9	Y9	Z9	X10	Y10	Z10	X11	Y11	Z11	X12	Y12	Z12	X13	Y13	Z13	X14	Y14	Z14	X15	Y15	Z15	X16	Y16	Z16	X17	Y17	Z17	X18	Y18	Z18	X19	Y19	Z19	X20	Y20	Z20	X21	Y21	Z21	X22	Y22	Z22	X23	Y23	Z23	X24	Y24	Z24	X25	Y25	Z25	X26	Y26	Z26
163	1.62	887.90149	1560.2651	-452.54843	871.23584	1561.9998	-701.49951	843.9068	1584.0254	-570.8819	996.51105	1481.7523	-587.84613	790.9682	1086.8276	-557.0733	967.14911	1083.7633	-432.30972	973.01373	1078.0543	-700.15106	898.31946	994.0473	-392.29318	891.90289	985.46649	-746.02942	905.51318	533.57776	-413.32587	880.64075	520.93262	-543.91705	900.59259	537.15729	-605.86523	899.51373	546.36096	-726.37225	926.65057	438.62671	-689.66272	948.02039	449.1619	-466.59052	833.09558	82.976082	-420.72086	854.69385	92.531837	-504.30573	853.65643	96.536346	-626.83673	819.61493	74.311363	-705.04474	973.26868	19.391552	-745.36108	1042.64	23.870964	-679.93622	1044.4928	21.308064	-457.19867	972.61572	19.870897	-379.92181	747.21442	10.381337	-466.21472	747.93304	9.0018501	-650.80029	784.38336	1292.1497	-565.45569
164	1.63	887.94385	1560.2748	-452.55576	871.24915	1562.0002	-701.51984	843.96124	1584.0157	-570.89868	996.56903	1481.7871	-587.83978	791.02606	1086.8419	-557.07617	967.3515	1083.74	-432.26196	973.17999	1078.0936	-700.10822	898.36914	994.05042	-392.29453	892.0332	985.45532	-746.05438	905.49939	533.58081	-413.31006	880.67413	520.95526	-543.90723	900.62079	537.09747	-605.87427	899.56439	546.35876	-726.41345	926.66431	438.63217	-689.64807	948.06854	449.15671	-466.57452	833.10785	82.982925	-420.72665	854.66132	92.488144	-504.37088	853.66754	96.497513	-626.87701	819.58893	74.298065	-705.09784	973.15826	19.370243	-745.48413	1042.6611	23.872353	-679.91614	1044.4543	21.30551	-457.17548	972.5918	19.889902	-379.93518	747.22455	10.348155	-466.22021	747.92798	9.0236731	-650.79547	784.45007	1292.1005	-565.4588
165	1.64	887.98132	1560.291	-452.60172	871.30048	1561.9742	-701.51141	843.98901	1584.0165	-570.91974	996.6499	1481.8005	-587.8252	791.09839	1086.8501	-557.09119	967.32715	1083.781	-432.23535	973.31219	1078.0225	-700.03448	898.40338	994.05377	-392.26883	892.14294	985.453	-745.99213	905.55298	533.633	-413.32468	880.64307	520.92841	-543.89575	900.78009	537.14307	-605.79413	899.58887	546.36951	-726.39313	926.7002	438.63214	-689.66382	948.07452	449.10428	-466.59052	833.09546	82.998116	-420.7229	854.69458	92.484749	-504.3981	853.92041	96.658516	-626.81189	819.57965	74.303711	-705.07434	972.93524	19.410004	-745.50964	1042.7347	23.907631	-679.91571	1044.4816	21.29565	-457.2157	972.62994	19.891741	-379.94977	747.16772	10.405856	-466.20135	747.91528	9.0071802	-650.78595	784.5556	1292.0895	-565.45447
166	1.65	888.02136	1560.3008	-452.62387	871.32623	1561.9569	-701.5365	844.02887	1583.9897	-570.93701	996.68805	1481.8257	-587.87518	791.22321	1086.8716	-557.0863	967.41559	1083.7478	-432.25415	973.37762	1078.0507	-700.0824	898.4585	994.0448	-392.28555	892.19989	985.47894	-746.02539	905.59039	533.57941	-413.31799	880.62811	520.96191	-543.89844	900.79742	537.10858	-605.78827	899.59576	546.34967	-726.43109	926.74255	438.64499	-689.63678	948.09906	449.11188	-466.53491	833.13635	82.982201	-420.71753	854.66125	92.469055	-504.4046	853.67401	96.507462	-626.90106	819.49933	74.35453	-705.125	973.24774	19.424505	-745.38556	1042.689	23.889767	-679.89667	1044.473	21.290565	-457.22888	972.64325	19.900028	-379.90976	747.18829	10.403754	-466.20691	747.94824	8.9998732	-650.80573	784.6095	1292.0916	-565.42078
167	1.66	888.05377	1560.3052	-452.64874	871.36884	1561.9364	-701.53937	844.08893	1584.0002	-570.95575	996.74054	1481.8378	-587.90649	791.28571	1086.8827	-557.08514	967.43744	1083.7297	-432.30814	973.47522	1078.0795	-700.07611	898.53723	994.03101	-392.27704	892.30981	985.44458	-746.0246	905.71216	533.59033	-413.28049	880.7489	520.91199	-543.86407	900.68774	537.09534	-605.85919	899.65552	546.34894	-726.45184	926.76099	438.63177	-689.61182	948.13196	449.10635	-466.53372	833.22949	83.000999	-420.56168	854.69257	92.466095	-504.38028	853.84198	96.473991	-626.76807	819.61346	74.30645	-705.08002	973.24054	19.405882	-745.37439	1042.7024	23.885176	-679.90173	1044.4744	21.360992	-457.17783	972.68854	19.876392	-379.94955	747.18323	10.395304	-466.18561	747.89697	9.0065289	-650.78387	784.75549	1292.0443	-565.47479
168	1.67	888.1051	1560.3135	-452.68454	871.40527	1561.924	-701.57709	844.11145	1583.9895	-570.99884	996.80298	1481.8242	-587.88843	791.38257	1086.8801	-557.09698	967.60693	1083.7329	-432.26886	973.59705	1078.0461	-700.05774	898.62164	994.03497	-392.23157	892.41724	985.44739	-745.98083	905.65735	533.53064	-413.27335	880.54584	520.98022	-543.91547	900.74963	537.07379	-605.83044	899.69849	546.30603	-726.41418	926.7782	438.60367	-689.59448	948.17694	449.14703	-466.55743	833.12958	82.974648	-420.70627	854.74139	92.524239	-504.30887	853.69122	96.469948	-626.88074	819.57794	74.297638	-705.07019	973.21643	19.402674	-745.3584	1042.7756	23.862629	-679.86139	1044.4932	21.307041	-457.17972	972.57648	19.875126	-379.91382	747.20209	10.380628	-466.19043	747.94049	8.9523478	-650.80487	784.81238	1292.0018	-565.43658
169	1.68	888.17523	1560.3104	-452.70837	871.44012	1561.8982	-701.59259	844.16107	1583.9749	-571.00763	996.86121	1481.8352	-587.94427	791.48767	1086.8708	-557.0777	967.66864	1083.7452	-432.25833	973.71436	1078.0839	-699.97559	898.70294	994.03296	-392.25681	892.53058	985.43921	-746.00116	905.77716	533.56439	-413.21936	880.76282	520.96344	-543.83905	900.86975	537.23254	-605.75549	899.74353	546.32867	-726.38452	926.79828	438.5965	-689.5614	948.25372	449.12579	-466.52933	833.19403	82.993538	-420.61252	854.79456	92.343102	-504.34644	853.70526	96.448837	-626.88177	819.60931	74.293182	-705.07117	973.24481	19.399895	-745.36414	1042.5499	23.902437	-680.04041	1044.5245	21.278692	-457.18515	972.61121	19.887672	-379.94476	747.21637	10.37769	-466.19205	747.93005	8.9949112	-650.80408	784.86139	1292.0017	-565.44806
170	1.69	888.23358	1560.3132	-452.71182	871.52124	1561.8661	-701.59851	844.21997	1583.9574	-571.03229	996.94208	1481.8411	-587.94678	791.58643	1086.897	-557.08051	967.73346	1083.7233	-432.25595	973.84082	1078.079	-699.98828	898.78656	994.02191	-392.25574	892.61102	985.39355	-745.96765	905.88025	533.55945	-413.18228	880.74817	520.94812	-543.84296	900.77838	537.08295	-605.81702	899.77789	546.32397	-726.37573	926.86548	438.57672	-689.52289	948.255	449.08823	-466.55231	833.24762	82.991707	-420.57773	854.69995	92.487335	-504.36456	853.67792	96.459892	-626.86218	819.60266	74.273468	-705.06842	973.24115	19.404558	-745.34656	1042.8682	24.105846	-679.7196	1044.5138	21.284239	-457.16971	972.61176	19.850679	-379.9064	747.1897	10.418695	-466.17392	747.9295	8.9978895	-650.80396	784.93701	1291.9968	-565.42963
171	1.7	888.24951	1560.3313	-452.72552	871.55768	1561.8503	-701.61627	844.27917	1583.9381	-571.05798	997.00647	1481.8507	-587.95544	791.66736	1086.9009	-557.05493	967.89655	1083.7264	-432.24557	973.8468	1078.0612	-700.02368	898.92834	994.05115	-392.21072	892.71155	985.39099	-745.96399	905.76099	533.5589	-413.26578	880.78088	520.96735	-543.83331	900.90271	537.17725	-605.78467	899.8006	546.33356	-726.38666	926.88373	438.60013	-689.54309	948.28754	449.03915	-466.57428	833.13776	82.961044	-420.70309	854.6886	92.510445	-504.36752	853.85431	96.442688	-626.75818	819.5733	74.311546	-705.0484	973.22894	19.398586	-745.36279	1042.885	24.117342	-679.71588	1044.4712	21.254658	-457.19098	972.72266	19.857296	-379.9097	747.203	10.404576	-466.20062	747.92224	8.9519386	-650.78131	785.02271	1291.9498	-565.44873
172	1.71	888.28809	1560.3286	-452.75027	871.61871	1561.832	-701.61707	844.31396	1583.9287	-571.06909	997.08521	1481.8512	-587.93207	791.75159	1086.9038	-557.05304	967.91547	1083.7009	-432.21985	973.94641	1078.0023	-700.03894	899.00537	994.03632	-392.19592	892.77814	985.43616	-745.94556	905.83435	533.56519	-413.27063	880.89508	520.95642	-543.81891	901.0025	537.14117	-605.73352	899.91083	546.31256	-726.34839	926.95282	438.59875	-689.53595	948.29913	449.05432	-466.55832	833.13574	82.991158	-420.70673	854.72845	92.478622	-504.37891	853.71851	96.51564	-626.84784	819.6087	74.309914	-705.06262	973.28802	19.372074	-745.36475	1042.6445	23.789366	-679.91583	1044.4543	21.265619	-457.16983	972.64117	19.834877	-379.88702	747.23083	10.395755	-466.19339	747.93616	9.0110693	-650.79913	785.06842	1291.9398	-565.40881
173	1.72	888.35773	1560.3375	-452.76288	871.68237	1561.8309	-701.62476	844.34509	1583.9189	-571.08673	997.15485	1481.8779	-587.94745	791.87451	1086.8899	-557.03693	967.99854	1083.6575	-432.20932	974.04694	1077.9935	-700.05182	899.09802	994.05945	-392.19562	892.90234	985.42395	-745.93768	905.94739	533.56427	-413.23285	880.88861	520.94843	-543.84882	900.90448	537.0351	-605.83466	899.97052	546.29742	-726.28925	926.98889	438.56293	-689.479	948.36188	449.0372	-466.53827	833.15973	82.988762	-420.70712	854.87329	92.323265	-504.34232	853.67249	96.497078	-626.84509	819.69177	74.269493	-705.08118	973.25525	19.376657	-745.37268	1042.8767	24.098446	-679.69855	1044.5165	21.20715	-457.23749	972.612	19.846481	-379.93939	747.20349	10.4372	-466.17694	747.96082	8.9936657	-650.80408	785.18823	1291.938	-565.43207
174	1.73	888.42523	1560.3475	-452.77594	871.73895	1561.8243	-701.64343	844.41992	1583.9149	-571.11707	997.21796	1481.9023	-587.94995	792.01337	1086.8977	-557.01678	968.19757	1083.709	-432.21136	974.17078	1078.0586	-699.99347	899.2525	994.03369	-392.18921	892.9812	985.44342	-745.91541	906.0163	533.58661	-413.22595	881.086	520.93335	-543.79102	901.17334	537.05682	-605.71906	900.04529	546.30792	-726.29395	927.02557	438.54944	-689.48633	948.37256	449.04123	-466.53214	833.30151	83.017548	-420.5614	854.70618	92.538437	-504.36319	853.72461	96.505608	-626.85376	819.59644	74.347595	-705.06561	973.23944	19.370028	-745.38959	1042.8287	24.176712	-679.75531	1044.5037	21.144197	-457.30032	972.63141	19.852911	-379.94702	747.21619	10.433139	-466.20935	747.9444	9.0086718	-650.78131	785.25787	1291.95	-565.4071
175	1.74	888.50665	1560.361	-452.78357	871.79016	1561.8083	-701.65479	844.51398	1583.9106	-571.12299	997.28485	1481.8749	-587.96326	792.10443	1086.9171	-556.99615	968.31378	1083.6759	-432.18771	974.28326	1078.0464	-699.97937	899.36548	994.02631	-392.16122	893.09149	985.42566	-745.88379	906.04645	533.57751	-413.24045	881.12018	520.88641	-543.87885	901.16187	537.08057	-605.70844	900.10303	546.30151	-726.24506	927.1004	438.55795	-689.45081	948.50421	449.02658	-466.53778	833.27533	83.032104	-420.616	854.79358	92.43322	-504.33813	853.77661	96.502846	-626.84509	819.62518	74.35495	-705.04419	973.25604	19.375687	-745.37958	1042.6722	23.817598	-679.89941	1044.5361	21.11784	-457.26746	972.64215	19.869543	-379.8757	747.21332	10.437269	-466.21027	747.94611	9.0309353	-650.77448	785.37866	1291.9148	-565.42505
176	1.75	888.57251	1560.3527	-452.8002	871.87921	1561.796	-701.67297	844.53662	1583.91	-571.17041	997.36658	1481.8806	-587.9483	792.21985	1086.8871	-556.9906	968.43927	1083.6965	-432.18207	974.3443	1077.9847	-700.03424	899.44263	994.00354	-392.18378	893.19946	985.40454	-745.87366	906.13721	533.52997	-413.23975	881.20435	520.95746	-543.92609	901.25745	537.07684	-605.64697	900.15979	546.3186	-726.23633	927.13123	438.53946	-689.4765	948.53119	448.99026	-466.50464	833.16821	83.010414	-420.70483	854.80542	92.521652	-504.30005	853.86786	96.484612	-626.69214	819.67621	74.332932	-705.03827	973.26996	19.39217	-745.36285	1042.8762	24.114389	-679.76428	1044.5004	21.275547	-457.17001	972.6593	19.848883	-379.85449	747.25708	10.420091	-466.2077	747.91687	9.0526972	-650.75293	785.44928	1291.9	-565.40448
